<?xml version="1.0" encoding="UTF-8" standalone="no"?>
<svg
   xmlns:dc="http://purl.org/dc/elements/1.1/"
   xmlns:cc="http://creativecommons.org/ns#"
   xmlns:rdf="http://www.w3.org/1999/02/22-rdf-syntax-ns#"
   xmlns:svg="http://www.w3.org/2000/svg"
   xmlns="http://www.w3.org/2000/svg"
   xmlns:sodipodi="http://sodipodi.sourceforge.net/DTD/sodipodi-0.dtd"
   xmlns:inkscape="http://www.inkscape.org/namespaces/inkscape"
   inkscape:export-ydpi="195.07202"
   inkscape:export-xdpi="195.07202"
   inkscape:export-filename="/Users/mathieudelehaye/bitmap.png"
   sodipodi:docname="disclosure.svg"
   inkscape:version="1.0 (4035a4f, 2020-05-01)"
   id="svg8"
   version="1.1"
   viewBox="0 0 64 200"
   height="200mm"
   width="64mm">
  <defs
     id="defs2">
    <marker
       inkscape:isstock="true"
       style="overflow:visible"
       id="marker2349"
       refX="0"
       refY="0"
       orient="auto"
       inkscape:stockid="Arrow1Lstart">
      <path
         transform="matrix(0.8,0,0,0.8,10,0)"
         style="fill-rule:evenodd;stroke:#000000;stroke-width:1pt"
         d="M 0,0 5,-5 -12.5,0 5,5 Z"
         id="path2347" />
    </marker>
    <marker
       inkscape:isstock="true"
       style="overflow:visible"
       id="marker2231"
       refX="0"
       refY="0"
       orient="auto"
       inkscape:stockid="Arrow1Lstart">
      <path
         transform="matrix(0.8,0,0,0.8,10,0)"
         style="fill-rule:evenodd;stroke:#000000;stroke-width:1pt"
         d="M 0,0 5,-5 -12.5,0 5,5 Z"
         id="path2229" />
    </marker>
    <marker
       inkscape:isstock="true"
       style="overflow:visible"
       id="marker2119"
       refX="0"
       refY="0"
       orient="auto"
       inkscape:stockid="Arrow1Lstart">
      <path
         transform="matrix(0.8,0,0,0.8,10,0)"
         style="fill-rule:evenodd;stroke:#000000;stroke-width:1pt"
         d="M 0,0 5,-5 -12.5,0 5,5 Z"
         id="path2117" />
    </marker>
    <marker
       inkscape:isstock="true"
       style="overflow:visible"
       id="marker2013"
       refX="0"
       refY="0"
       orient="auto"
       inkscape:stockid="Arrow1Lstart">
      <path
         transform="matrix(0.8,0,0,0.8,10,0)"
         style="fill-rule:evenodd;stroke:#000000;stroke-width:1pt"
         d="M 0,0 5,-5 -12.5,0 5,5 Z"
         id="path2011" />
    </marker>
    <marker
       inkscape:isstock="true"
       style="overflow:visible"
       id="marker1913"
       refX="0"
       refY="0"
       orient="auto"
       inkscape:stockid="Arrow1Lstart">
      <path
         transform="matrix(0.8,0,0,0.8,10,0)"
         style="fill-rule:evenodd;stroke:#000000;stroke-width:1pt"
         d="M 0,0 5,-5 -12.5,0 5,5 Z"
         id="path1911" />
    </marker>
    <marker
       inkscape:isstock="true"
       style="overflow:visible"
       id="marker1819"
       refX="0"
       refY="0"
       orient="auto"
       inkscape:stockid="Arrow1Lstart">
      <path
         transform="matrix(0.8,0,0,0.8,10,0)"
         style="fill-rule:evenodd;stroke:#000000;stroke-width:1pt"
         d="M 0,0 5,-5 -12.5,0 5,5 Z"
         id="path1817" />
    </marker>
    <marker
       inkscape:isstock="true"
       style="overflow:visible"
       id="marker1731"
       refX="0"
       refY="0"
       orient="auto"
       inkscape:stockid="Arrow1Lstart">
      <path
         transform="matrix(0.8,0,0,0.8,10,0)"
         style="fill-rule:evenodd;stroke:#000000;stroke-width:1pt"
         d="M 0,0 5,-5 -12.5,0 5,5 Z"
         id="path1729" />
    </marker>
    <marker
       inkscape:isstock="true"
       style="overflow:visible"
       id="marker1649"
       refX="0"
       refY="0"
       orient="auto"
       inkscape:stockid="Arrow1Lstart">
      <path
         transform="matrix(0.8,0,0,0.8,10,0)"
         style="fill-rule:evenodd;stroke:#000000;stroke-width:1pt"
         d="M 0,0 5,-5 -12.5,0 5,5 Z"
         id="path1647" />
    </marker>
    <marker
       inkscape:isstock="true"
       style="overflow:visible"
       id="marker1573"
       refX="0"
       refY="0"
       orient="auto"
       inkscape:stockid="Arrow1Lstart">
      <path
         transform="matrix(0.8,0,0,0.8,10,0)"
         style="fill-rule:evenodd;stroke:#000000;stroke-width:1pt"
         d="M 0,0 5,-5 -12.5,0 5,5 Z"
         id="path1571" />
    </marker>
    <marker
       inkscape:isstock="true"
       style="overflow:visible"
       id="marker1503"
       refX="0"
       refY="0"
       orient="auto"
       inkscape:stockid="Arrow1Lstart">
      <path
         transform="matrix(0.8,0,0,0.8,10,0)"
         style="fill-rule:evenodd;stroke:#000000;stroke-width:1pt"
         d="M 0,0 5,-5 -12.5,0 5,5 Z"
         id="path1501" />
    </marker>
    <marker
       inkscape:isstock="true"
       style="overflow:visible"
       id="marker1439"
       refX="0"
       refY="0"
       orient="auto"
       inkscape:stockid="Arrow1Lstart">
      <path
         transform="matrix(0.8,0,0,0.8,10,0)"
         style="fill-rule:evenodd;stroke:#000000;stroke-width:1pt"
         d="M 0,0 5,-5 -12.5,0 5,5 Z"
         id="path1437" />
    </marker>
    <marker
       inkscape:isstock="true"
       style="overflow:visible"
       id="marker1381"
       refX="0"
       refY="0"
       orient="auto"
       inkscape:stockid="Arrow1Lstart">
      <path
         transform="matrix(0.8,0,0,0.8,10,0)"
         style="fill-rule:evenodd;stroke:#000000;stroke-width:1pt"
         d="M 0,0 5,-5 -12.5,0 5,5 Z"
         id="path1379" />
    </marker>
    <marker
       inkscape:isstock="true"
       style="overflow:visible"
       id="marker1329"
       refX="0"
       refY="0"
       orient="auto"
       inkscape:stockid="Arrow1Lstart">
      <path
         transform="matrix(0.8,0,0,0.8,10,0)"
         style="fill-rule:evenodd;stroke:#000000;stroke-width:1pt"
         d="M 0,0 5,-5 -12.5,0 5,5 Z"
         id="path1327" />
    </marker>
    <marker
       inkscape:isstock="true"
       style="overflow:visible"
       id="marker1283"
       refX="0"
       refY="0"
       orient="auto"
       inkscape:stockid="Arrow1Lstart">
      <path
         transform="matrix(0.8,0,0,0.8,10,0)"
         style="fill-rule:evenodd;stroke:#000000;stroke-width:1pt"
         d="M 0,0 5,-5 -12.5,0 5,5 Z"
         id="path1281" />
    </marker>
    <marker
       inkscape:isstock="true"
       style="overflow:visible"
       id="marker1243"
       refX="0"
       refY="0"
       orient="auto"
       inkscape:stockid="Arrow1Lstart">
      <path
         transform="matrix(0.8,0,0,0.8,10,0)"
         style="fill:#000000;fill-opacity:0.89;fill-rule:evenodd;stroke:#000000;stroke-width:1pt;stroke-opacity:0"
         d="M 0,0 5,-5 -12.5,0 5,5 Z"
         id="path1241" />
    </marker>
    <marker
       inkscape:isstock="true"
       style="overflow:visible"
       id="marker1209"
       refX="0"
       refY="0"
       orient="auto"
       inkscape:stockid="Arrow1Lstart">
      <path
         transform="matrix(0.8,0,0,0.8,10,0)"
         style="fill-rule:evenodd;stroke:#000000;stroke-width:1pt"
         d="M 0,0 5,-5 -12.5,0 5,5 Z"
         id="path1207" />
    </marker>
    <marker
       inkscape:isstock="true"
       style="overflow:visible"
       id="marker1181"
       refX="0"
       refY="0"
       orient="auto"
       inkscape:stockid="Arrow1Lstart">
      <path
         transform="matrix(0.8,0,0,0.8,10,0)"
         style="fill-rule:evenodd;stroke:#000000;stroke-width:1pt"
         d="M 0,0 5,-5 -12.5,0 5,5 Z"
         id="path1179" />
    </marker>
    <marker
       inkscape:isstock="true"
       style="overflow:visible"
       id="marker1159"
       refX="0"
       refY="0"
       orient="auto"
       inkscape:stockid="Arrow1Lstart">
      <path
         transform="matrix(0.8,0,0,0.8,10,0)"
         style="fill-rule:evenodd;stroke:#000000;stroke-width:1pt"
         d="M 0,0 5,-5 -12.5,0 5,5 Z"
         id="path1157" />
    </marker>
    <marker
       inkscape:isstock="true"
       style="overflow:visible"
       id="marker1143"
       refX="0"
       refY="0"
       orient="auto"
       inkscape:stockid="Arrow1Lstart">
      <path
         transform="matrix(0.8,0,0,0.8,10,0)"
         style="fill-rule:evenodd;stroke:#000000;stroke-width:1pt"
         d="M 0,0 5,-5 -12.5,0 5,5 Z"
         id="path1141" />
    </marker>
    <marker
       inkscape:isstock="true"
       style="overflow:visible"
       id="Arrow1Lstart"
       refX="0"
       refY="0"
       orient="auto"
       inkscape:stockid="Arrow1Lstart">
      <path
         transform="matrix(0.8,0,0,0.8,10,0)"
         style="fill-rule:evenodd;stroke:#000000;stroke-width:1pt"
         d="M 0,0 5,-5 -12.5,0 5,5 Z"
         id="path871" />
    </marker>
  </defs>
  <sodipodi:namedview
     inkscape:window-maximized="0"
     inkscape:window-y="58"
     inkscape:window-x="1665"
     inkscape:window-height="855"
     inkscape:window-width="1575"
     showgrid="false"
     inkscape:document-rotation="0"
     inkscape:current-layer="layer1"
     inkscape:document-units="mm"
     inkscape:cy="373.29075"
     inkscape:cx="318.51736"
     inkscape:zoom="0.73019324"
     inkscape:pageshadow="2"
     inkscape:pageopacity="0.0"
     borderopacity="1.0"
     bordercolor="#666666"
     pagecolor="#ffffff"
     id="base"
     inkscape:snap-page="true" />
  <metadata
     id="metadata5">
    <rdf:RDF>
      <cc:Work
         rdf:about="">
        <dc:format>image/svg+xml</dc:format>
        <dc:type
           rdf:resource="http://purl.org/dc/dcmitype/StillImage" />
        <dc:title />
      </cc:Work>
    </rdf:RDF>
  </metadata>
  <g
     id="layer1"
     inkscape:groupmode="layer"
     inkscape:label="Layer 1">
    <g
       style="opacity:1"
       id="g865"
       transform="matrix(1.0020849,0,0,0.79948415,-0.36176749,0.29331566)">
      <path
         id="path869"
         d="m 91.128906,73.814453 -0.195312,0.179688 -0.05469,1.3125 1.078125,1.173828 1.367188,-1.257813 -0.449219,-0.490234 -0.488281,0.449219 z m 2.44336,1.283203 -1.369141,1.257813 1.207031,1.3125 -0.195312,0.179687 1.257812,1.369141 1.367188,-1.257813 -1.205078,-1.3125 0.195312,-0.179687 z m 2.515625,2.736328 -1.369141,1.257813 1.207031,1.3125 -0.195312,0.179687 1.257812,1.369141 1.369141,-1.257813 -1.207031,-1.3125 0.195312,-0.179687 z m 2.515625,2.736328 -1.369141,1.259766 1.207031,1.3125 -0.195312,0.179688 1.257812,1.367187 1.369144,-1.257812 -1.207034,-1.3125 0.195312,-0.179688 z m 2.515624,2.738282 -1.36914,1.257812 1.20703,1.3125 -0.19531,0.179688 1.25781,1.367187 1.36914,-1.257812 -1.20703,-1.3125 0.19531,-0.179688 z m 2.51563,2.736328 -1.36915,1.257812 1.20704,1.3125 -0.19532,0.179688 1.25782,1.36914 1.36914,-1.257812 -1.20703,-1.3125 0.19531,-0.179688 z m 2.51562,2.736328 -1.36914,1.257812 1.20703,1.3125 -0.19531,0.179688 1.25781,1.369141 1.36914,-1.257813 -1.20703,-1.3125 0.19531,-0.179687 z m 2.51563,2.736328 -1.36914,1.257813 1.20703,1.3125 -0.19532,0.179687 1.25782,1.369141 1.36914,-1.257813 -1.20703,-1.3125 0.19531,-0.179687 z m 2.51562,2.738281 -1.36914,1.257813 1.20898,1.310547 -0.19726,0.18164 1.25781,1.367188 1.36914,-1.257813 -1.20703,-1.3125 0.19531,-0.179687 z m 2.51563,2.736329 -1.36719,1.257812 1.20703,1.3125 -0.19531,0.179688 1.25781,1.369142 1.36719,-1.259768 -1.20703,-1.3125 0.19531,-0.179687 z m 2.51562,2.736328 -1.36719,1.257814 1.20703,1.3125 -0.19531,0.17969 1.25781,1.36914 1.36719,-1.25782 -1.20703,-1.3125 0.19531,-0.17968 z m 2.51563,2.736324 -1.36719,1.25782 1.20703,1.3125 -0.19531,0.17968 1.25781,1.36914 1.36719,-1.25781 -1.20703,-1.3125 0.19531,-0.17969 z m 2.51562,2.73828 -1.36719,1.25782 1.20703,1.3125 -0.19531,0.17968 1.25781,1.36719 1.36719,-1.25781 -1.20703,-1.3125 0.19531,-0.17969 z m 2.51563,2.73633 -1.36719,1.25782 1.20703,1.3125 -0.19531,0.17968 1.25781,1.36719 1.36914,-1.25781 -1.20898,-1.3125 0.19531,-0.17969 z m 2.51757,2.73633 -1.36914,1.25781 1.20703,1.3125 -0.19531,0.17969 1.25781,1.36914 1.36915,-1.25781 -1.20704,-1.3125 0.19532,-0.17969 z m 2.51563,2.73633 -1.36914,1.25781 1.20703,1.3125 -0.19531,0.17969 1.25781,1.36914 1.36914,-1.25781 -1.20703,-1.3125 0.19531,-0.17969 z m 2.51562,2.73633 -1.36914,1.25976 1.20703,1.31055 -0.19531,0.17969 1.25781,1.36914 1.36914,-1.25781 -1.20703,-1.3125 0.19532,-0.17969 z m 2.51563,2.73828 -1.36914,1.25781 1.20703,1.3125 -0.19531,0.17969 1.25781,1.36719 1.36914,-1.25782 -1.20703,-1.3125 0.19531,-0.17968 z m 2.51562,2.73633 -1.36914,1.25781 1.20703,1.3125 -0.19531,0.17969 1.25781,1.36718 1.36915,-1.25781 -1.20704,-1.31054 0.19532,-0.17969 z m 2.51563,2.73633 -1.36914,1.25781 1.20703,1.3125 -0.19531,0.17969 1.25781,1.36914 1.36914,-1.25782 -1.20703,-1.3125 0.19531,-0.17968 z m 2.51562,2.73632 -1.36914,1.25782 1.20703,1.3125 -0.19531,0.17968 1.25977,1.36914 1.36718,-1.25781 -1.20703,-1.3125 0.19532,-0.17969 z m 2.51563,2.73828 -1.36914,1.25782 1.20898,1.3125 -0.19531,0.17968 1.25781,1.36719 1.36719,-1.25781 -1.20703,-1.3125 0.19531,-0.17969 z m 2.51562,2.73633 -1.36914,1.25781 1.20899,1.3125 -0.19531,0.17969 1.25781,1.36719 1.36719,-1.25781 -1.20704,-1.3125 0.19532,-0.17969 z m 2.51563,2.73633 -1.36719,1.25781 1.20703,1.3125 -0.19531,0.17969 1.25781,1.36914 1.36719,-1.25781 -1.20703,-1.3125 0.19531,-0.17969 z m 2.51562,2.73633 -1.36718,1.25781 1.20703,1.3125 -0.19532,0.17969 1.25782,1.36914 1.36718,-1.25781 -1.20703,-1.3125 0.19532,-0.17969 z m 2.51563,2.73828 -1.36719,1.25781 1.20703,1.31055 -0.19531,0.17969 1.25781,1.36914 1.36914,-1.25782 -1.20703,-1.31445 0.19336,-0.17773 z m 2.51562,2.73633 -1.36718,1.25781 1.20703,1.3125 -0.19531,0.17969 1.25781,1.36719 1.36914,-1.25782 -1.20899,-1.3125 0.19532,-0.17968 z m 2.51563,2.73633 -1.36719,1.25781 1.20703,1.3125 -0.19531,0.17969 1.25781,1.36718 1.36914,-1.25781 -1.20703,-1.31055 0.19531,-0.17968 z m 2.51758,2.73632 -1.36914,1.25782 1.20703,1.3125 -0.19532,0.17968 1.25782,1.36915 1.36914,-1.25782 -1.20703,-1.3125 0.19531,-0.17968 z m 2.51562,2.73633 -1.36914,1.25782 1.20703,1.3125 -0.19531,0.17968 1.25781,1.36914 1.36914,-1.25781 -1.20703,-1.3125 0.19531,-0.17969 z m 2.51563,2.73828 -1.36914,1.25782 1.20703,1.31054 -0.19531,0.17969 1.25781,1.36914 1.36914,-1.25781 -1.20703,-1.3125 0.19531,-0.17969 z m 2.51562,2.73633 -1.36914,1.25781 1.20703,1.3125 -0.19531,0.17969 1.25781,1.36719 1.36914,-1.25781 -1.20703,-1.31055 0.19531,-0.17969 z m 2.51563,2.73633 -1.36914,1.25781 1.20703,1.31446 -0.19336,0.17773 0.43554,0.47266 -0.75195,0.68164 1.25,1.37695 1.37695,-1.25 -0.17773,-0.19727 0.0645,-0.0586 0.0586,-1.31641 -0.83789,-0.91015 0.19531,-0.17969 z m -1.1875,4.01562 -1.37696,1.25 0.17774,0.19727 -1.03711,0.94141 1.25,1.375 1.37695,-1.25 -0.17773,-0.19532 1.03711,-0.9414 z m -2.75196,2.5 -1.37695,1.24805 0.17774,0.19727 -1.03711,0.9414 1.25,1.37696 1.375,-1.25 -0.17774,-0.19532 1.03906,-0.94336 z m -2.75195,2.49805 -1.37695,1.25 0.17773,0.19531 -1.03711,0.94141 1.25,1.37695 1.375,-1.25 -0.17773,-0.19531 1.03711,-0.94336 z m -2.75195,2.49805 -1.37696,1.25 0.17774,0.19531 -1.03711,0.94336 1.25,1.375 1.375,-1.24805 -0.17774,-0.19531 1.03711,-0.94336 z m -2.75391,2.5 -1.375,1.25 0.17774,0.19531 -1.03711,0.94141 1.25,1.37695 1.375,-1.25 -0.17774,-0.19531 1.03711,-0.94336 z m -2.75195,2.49805 -1.375,1.25 0.17773,0.19531 -1.03711,0.94336 1.24805,1.375 1.37695,-1.24805 -0.17773,-0.19531 1.03711,-0.94336 z m -2.75195,2.5 -1.375,1.24804 0.17773,0.19531 -1.03711,0.94336 1.24805,1.37696 1.37695,-1.25 -0.17773,-0.19727 1.03711,-0.9414 z m -2.75196,2.49804 -1.375,1.25 0.17774,0.19531 -1.03907,0.94336 1.25,1.375 1.37696,-1.25 -0.17774,-0.19531 1.03711,-0.9414 z m -2.75195,2.5 -1.37695,1.24805 0.17773,0.19726 -1.03711,0.94141 1.25,1.37695 1.37695,-1.25 -0.17773,-0.19726 1.03711,-0.94141 z m -2.75195,2.49805 -1.37696,1.25 0.17774,0.19531 -1.03711,0.94141 1.25,1.37695 1.375,-1.25 -0.17774,-0.19531 1.03907,-0.94141 z m -2.75196,2.49805 -1.37695,1.25 0.17773,0.19726 -1.03711,0.94141 1.25,1.375 1.375,-1.24805 -0.17773,-0.19531 1.03711,-0.94336 z m -2.75195,2.5 -1.37695,1.25 0.17773,0.19531 -1.03711,0.9414 1.25,1.37696 1.375,-1.25 -0.17773,-0.19531 1.03711,-0.94336 z m -2.75195,2.49804 -1.37696,1.25 0.17774,0.19532 -1.03711,0.94335 1.24805,1.375 1.37695,-1.24804 -0.17774,-0.19531 1.03711,-0.94336 z m -2.75391,2.5 -1.375,1.24805 0.17773,0.19531 -1.0371,0.94336 1.24804,1.37695 1.37696,-1.25 -0.17774,-0.19531 1.03711,-0.94336 z m -2.75195,2.49805 -1.375,1.25 0.17773,0.19531 -1.03906,0.94336 1.25,1.375 1.37695,-1.25 -0.17773,-0.19531 1.03711,-0.94141 z m -2.75196,2.5 -1.375,1.24805 0.17774,0.19531 -1.03906,0.94336 1.25,1.37695 1.37695,-1.25 -0.17774,-0.19726 1.03711,-0.94141 z m -2.75195,2.49805 -1.37695,1.25 0.17773,0.19531 -1.03711,0.94141 1.25,1.37695 1.37696,-1.25 -0.17774,-0.19531 1.03711,-0.94141 z m -2.75195,2.5 -1.37696,1.24804 0.17774,0.19727 -1.03711,0.94141 1.25,1.375 1.375,-1.24805 -0.17773,-0.19531 1.03906,-0.94336 z m -2.75196,2.49804 -1.37695,1.25 0.17774,0.19532 -1.03711,0.9414 1.25,1.37696 1.375,-1.25 -0.17774,-0.19532 1.03906,-0.9414 z m -2.75195,2.49805 -1.37695,1.25 0.17773,0.19531 -1.03711,0.94336 1.25,1.375 1.375,-1.24804 -0.17773,-0.19532 1.03711,-0.94336 z m -2.75195,2.5 -1.37696,1.25 0.17774,0.19531 -1.03711,0.94141 1.24805,1.37695 1.37695,-1.25 -0.17773,-0.19531 1.0371,-0.94336 z m -2.75391,2.49805 -1.375,1.25 0.17774,0.19531 -1.03711,0.94336 1.24804,1.375 1.37696,-1.25 -0.17774,-0.19531 1.03711,-0.94141 z m -2.75195,2.5 -1.375,1.24804 0.17773,0.19532 -1.03906,0.94336 1.25,1.37695 1.37695,-1.25 -0.17773,-0.19531 1.03711,-0.94336 z m -2.75195,2.49804 -1.375,1.25 0.17773,0.19532 -1.03906,0.9414 1.25,1.37696 1.37695,-1.25 -0.17773,-0.19532 1.03711,-0.9414 z m -2.75196,2.5 -1.375,1.24805 0.17774,0.19531 -1.03907,0.94336 1.25,1.375 1.375,-1.24804 -0.17773,-0.19532 1.03906,-0.94336 z m -2.75195,2.49805 -1.37695,1.25 0.17773,0.19531 -1.037109,0.94141 1.249999,1.37695 1.375,-1.25 -0.17773,-0.19531 1.03906,-0.94141 z m -2.751954,2.49805 -1.376953,1.25 0.177735,0.19531 -1.03711,0.94336 1.25,1.375 1.375,-1.24805 -0.177734,-0.19531 1.039066,-0.94336 z m -2.751953,2.5 -1.376953,1.25 0.177734,0.19531 -1.037109,0.94141 1.25,1.37695 1.375,-1.25 -0.177734,-0.19531 1.037109,-0.94336 z m -2.751953,2.49805 -1.376953,1.25 0.177734,0.19531 -1.037109,0.94336 1.248047,1.375 1.376953,-1.25 -0.177734,-0.19532 1.037109,-0.9414 z"
         style="color:#000000;font-style:normal;font-variant:normal;font-weight:normal;font-stretch:normal;font-size:medium;line-height:normal;font-family:sans-serif;font-variant-ligatures:normal;font-variant-position:normal;font-variant-caps:normal;font-variant-numeric:normal;font-variant-alternates:normal;font-variant-east-asian:normal;font-feature-settings:normal;font-variation-settings:normal;text-indent:0;text-align:start;text-decoration:none;text-decoration-line:none;text-decoration-style:solid;text-decoration-color:#000000;letter-spacing:normal;word-spacing:normal;text-transform:none;writing-mode:lr-tb;direction:ltr;text-orientation:mixed;dominant-baseline:auto;baseline-shift:baseline;text-anchor:start;white-space:normal;shape-padding:0;shape-margin:0;inline-size:0;clip-rule:nonzero;display:inline;overflow:visible;visibility:visible;isolation:auto;mix-blend-mode:normal;color-interpolation:sRGB;color-interpolation-filters:linearRGB;solid-color:#000000;solid-opacity:1;vector-effect:none;fill:#000000;fill-opacity:0;fill-rule:nonzero;stroke:none;stroke-width:1.8587;stroke-linecap:butt;stroke-linejoin:bevel;stroke-miterlimit:4;stroke-dasharray:1.8587, 1.8587;stroke-dashoffset:0;stroke-opacity:1;color-rendering:auto;image-rendering:auto;shape-rendering:auto;text-rendering:auto;enable-background:accumulate;stop-color:#000000;stop-opacity:1" />
    </g>
    <path
       sodipodi:nodetypes="cccc"
       id="path2591"
       d="M 7.0960233,7.0960233 56.904095,100.21298 8.0054598,192.90399 v 0"
       style="mix-blend-mode:normal;fill:none;stroke:#ffffff;stroke-width:14.192;stroke-linecap:round;stroke-linejoin:round;stroke-miterlimit:4;stroke-dasharray:none;stroke-dashoffset:0;stroke-opacity:1"
       inkscape:export-filename="/Users/mathieudelehaye/path2591.png"
       inkscape:export-xdpi="195.07199"
       inkscape:export-ydpi="195.07199" />
  </g>
</svg>
